<mxfile host="app.diagrams.net" modified="2021-03-29T14:04:28.713Z" agent="5.0 (Windows NT 10.0; Win64; x64) AppleWebKit/537.36 (KHTML, like Gecko) Chrome/89.0.4389.90 Safari/537.36" etag="-kYp9ZPOY_1h3vLZ1m_F" version="14.5.1" type="github">
  <diagram id="ahOhpCiIuuFdayRyWSyJ" name="Page-1">
    <mxGraphModel dx="1830" dy="1070" grid="1" gridSize="10" guides="1" tooltips="1" connect="1" arrows="1" fold="1" page="1" pageScale="1" pageWidth="1200" pageHeight="1000" math="0" shadow="0">
      <root>
        <mxCell id="0" />
        <mxCell id="1" parent="0" />
        <mxCell id="2uz53D51kx7kDer_HRr0-3" style="edgeStyle=orthogonalEdgeStyle;rounded=0;orthogonalLoop=1;jettySize=auto;html=1;entryX=0;entryY=0.5;entryDx=0;entryDy=0;" edge="1" parent="1" source="2uz53D51kx7kDer_HRr0-1" target="2uz53D51kx7kDer_HRr0-2">
          <mxGeometry relative="1" as="geometry" />
        </mxCell>
        <mxCell id="2uz53D51kx7kDer_HRr0-1" value="" style="rounded=0;whiteSpace=wrap;html=1;" vertex="1" parent="1">
          <mxGeometry x="110" y="160" width="120" height="60" as="geometry" />
        </mxCell>
        <UserObject label="" link="news.ycombinator.com" id="2uz53D51kx7kDer_HRr0-2">
          <mxCell style="rounded=0;whiteSpace=wrap;html=1;" vertex="1" parent="1">
            <mxGeometry x="310" y="160" width="120" height="60" as="geometry" />
          </mxCell>
        </UserObject>
      </root>
    </mxGraphModel>
  </diagram>
</mxfile>
